<?xml version="1.0" encoding="UTF-8" standalone="no"?>
<!-- Created with Inkscape (http://www.inkscape.org/) -->

<svg
   width="378.77298mm"
   height="164.14059mm"
   viewBox="0 0 378.77298 164.1406"
   version="1.1"
   id="svg5"
   xml:space="preserve"
   inkscape:version="1.3 (0e150ed6c4, 2023-07-21)"
   sodipodi:docname="case.svg"
   xmlns:inkscape="http://www.inkscape.org/namespaces/inkscape"
   xmlns:sodipodi="http://sodipodi.sourceforge.net/DTD/sodipodi-0.dtd"
   xmlns="http://www.w3.org/2000/svg"
   xmlns:svg="http://www.w3.org/2000/svg"><sodipodi:namedview
     id="namedview7"
     pagecolor="#ffffff"
     bordercolor="#000000"
     borderopacity="0.25"
     inkscape:showpageshadow="2"
     inkscape:pageopacity="0.0"
     inkscape:pagecheckerboard="0"
     inkscape:deskcolor="#d1d1d1"
     inkscape:document-units="mm"
     showgrid="false"
     showguides="true"
     inkscape:zoom="0.5946522"
     inkscape:cx="890.43646"
     inkscape:cy="470.02265"
     inkscape:window-width="1920"
     inkscape:window-height="1051"
     inkscape:window-x="0"
     inkscape:window-y="0"
     inkscape:window-maximized="1"
     inkscape:current-layer="layer1"><sodipodi:guide
       position="316.22992,114.80675"
       orientation="0,-1"
       id="guide2"
       inkscape:locked="false" /><sodipodi:guide
       position="285.01839,313.90701"
       orientation="0,-1"
       id="guide3"
       inkscape:locked="false" /><sodipodi:guide
       position="312.92986,289.34003"
       orientation="1,0"
       id="guide4"
       inkscape:locked="false" /><sodipodi:guide
       position="285.01839,313.90701"
       orientation="0,-1"
       id="guide5"
       inkscape:locked="false" /></sodipodi:namedview><defs
     id="defs2" /><g
     inkscape:label="Layer 1"
     inkscape:groupmode="layer"
     id="layer1"
     transform="translate(19.458455,49.471374)"><path
       id="rect1-3-6"
       style="fill:none;stroke:#ff0000;stroke-width:0.24;stroke-dasharray:none"
       d="m 64.261616,30.948634 v 27.866517 h -3.30006 v 27.867028 h 3.30006 V 114.5487 h 27.91147 v -3.30006 h 31.211544 v 3.30006 h 25.92038 v -3.30006 h 31.21153 v 3.30006 h 27.91147 V 86.682179 h 3.30006 V 58.815667 h -3.30006 V 30.948634 h -27.91147 v 3.300057 h -31.21153 v -3.300057 h -25.92038 v 3.300057 H 92.173086 v -3.300057 z m 19.53317,26.799915 h 52.499644 v 29.99972 H 83.794786 Z m 105.976484,3.00033 a 12,12 0 0 1 11.99979,11.99979 12,12 0 0 1 -11.99979,12.0003 12,12 0 0 1 -12.0003,-12.0003 12,12 0 0 1 12.0003,-11.99979 z" /><path
       id="rect1-3-61"
       style="fill:none;stroke:#ff0000;stroke-width:0.24;stroke-dasharray:none"
       d="m 239.63954,30.949157 v 3.30005 h -31.21153 v 24.56646 h 3.30005 v 27.867042 h -3.30005 v 24.566451 h 31.21153 v 3.30006 h 31.21154 v -3.30006 h 25.92038 v 3.30006 h 31.21152 v -3.30006 h 31.21153 V 86.682189 h -3.30006 V 58.815667 h 3.30006 v -24.56646 h -31.21153 v -3.30005 h -31.21152 v 3.30005 h -25.92038 v -3.30005 z"
       sodipodi:nodetypes="ccccccccccccccccccccccccccccc" /><path
       id="rect1-3"
       style="fill:none;stroke:#ff0000;stroke-width:0.24;stroke-dasharray:none"
       d="m 180.51653,34.248691 v -3.300057 h 31.21153 V 6.3821748 H 208.428 V -21.484858 h 3.30006 v -24.566459 h -31.21153 v -3.300057 h -31.21154 v 3.300057 h -25.92038 v -3.300057 H 92.17308 v 3.300057 H 60.96155 v 24.566975 h 3.30006 V 6.3821748 H 60.96155 V 30.948634 h 31.21153 v 3.300057 h 31.21153 v -3.300057 h 25.92038 v 3.300057 z M 202.24647,20.698613 H 99.24655 v -56.49991 h 102.99992 z" /><path
       id="rect1-3-6-0"
       style="fill:none;stroke:#ff0000;stroke-width:0.24;stroke-dasharray:none"
       d="M 355.89446,34.248692 V 6.3821758 h 3.30006 V -21.484857 h -3.30006 v -27.866517 h -27.91147 v 3.300057 h -31.21154 v -3.300057 h -25.92038 v 3.300057 h -31.21153 v -3.300057 h -27.91147 v 27.866517 h -3.30006 V 6.3816588 h 3.30006 V 34.248692 h 27.91147 v -3.300057 h 31.21153 v 3.300057 h 25.92038 v -3.300057 h 31.21154 v 3.300057 z M 242.91893,19.393785 h -11.38174 c -1.00221,0 -1.80919,-0.806976 -1.80919,-1.809192 V 11.20307 c 0,-1.002217 0.80698,-1.8091922 1.80919,-1.8091922 h 11.38174 c 1.00221,0 1.80919,0.8069752 1.80919,1.8091922 v 6.381523 c 0,1.002216 -0.80698,1.809192 -1.80919,1.809192 z" /><path
       id="rect1-3-5"
       style="fill:none;stroke:#ff0000;stroke-width:0.24;stroke-dasharray:none"
       d="m -19.338455,6.382175 h 3.30006 V 34.248691 H 8.528574 v -3.30006 h 27.866521 v 3.30006 H 60.96155 V 6.382175 h 3.30006 V -21.484341 H 60.96155 V -49.351374 H 36.395095 v 3.30006 H 8.528064 v -3.30006 h -27.866519 v 5.2e-4 h 3.30006 v 27.866513 h -3.30006 z M -3.283626,7.898362 V 1.898728 h 6.00015 v 5.999634 z m 0,-12.449886 v -6.000151 h 6.00015 v 6.000151 z m 0,-12.449886 v -6.000151 h 6.00015 v 6.000151 z" /><path
       id="rect1-3-5-3"
       style="fill:none;stroke:#ff0000;stroke-width:0.24;stroke-dasharray:none"
       d="m 36.395093,114.5487 v -3.30006 H 64.261609 V 86.681674 h -3.300057 v -27.86652 h 3.300057 V 34.248694 H 36.395093 V 30.948631 H 8.528577 v 3.300063 h -27.86703 v 24.56646 h 3.30005 v 27.86703 h -3.30005 l 5.1e-4,24.566456 h 27.86652 v 3.30006 z"
       sodipodi:nodetypes="ccccccccccccccccccccc" /></g></svg>
